<?xml version="1.0" standalone="no"?>
<!DOCTYPE svg PUBLIC "-//W3C//DTD SVG 20010904//EN"
 "http://www.w3.org/TR/2001/REC-SVG-20010904/DTD/svg10.dtd">
<svg version="1.0" xmlns="http://www.w3.org/2000/svg"
 width="276.000000pt" height="381.000000pt" viewBox="0 0 276.000000 381.000000"
 preserveAspectRatio="xMidYMid meet">

<g transform="translate(0.000000,381.000000) scale(0.100000,-0.100000)"
fill="#000000" stroke="none">
<path d="M2042 3543 l-322 -268 0 -378 0 -378 73 3 72 3 5 296 5 297 190 157
c105 87 212 176 239 199 l49 40 -7 -594 c-3 -327 -7 -663 -7 -746 0 -83 -4
-156 -8 -162 -5 -8 -30 6 -76 39 -200 146 -428 247 -631 279 -97 16 -297 13
-394 -5 -47 -9 -122 -27 -168 -42 -45 -14 -84 -24 -85 -22 -2 2 0 294 4 649 4
355 5 648 2 653 -2 4 -49 7 -104 7 l-99 0 -324 -267 -325 -268 0 -625 -1 -625
72 2 73 1 3 540 2 540 235 196 c129 108 237 196 240 196 7 0 6 -854 -1 -997
l-7 -121 -55 -33 c-163 -98 -381 -286 -554 -474 l-119 -130 56 -48 55 -49 0
-394 0 -394 75 0 75 0 0 452 -1 452 103 103 c96 97 265 240 338 286 l32 20 -6
-614 c-3 -338 -9 -773 -12 -966 l-6 -353 110 0 109 0 7 348 c3 191 9 654 12
1029 l7 683 76 29 c200 76 437 95 616 49 l50 -13 3 -868 2 -868 73 3 72 3 3
838 2 837 68 -34 c90 -45 229 -140 321 -217 l74 -63 -7 -413 -7 -413 111 0
110 0 0 93 c0 50 3 184 7 296 l6 205 27 -32 c14 -18 30 -32 34 -32 9 0 136
102 136 109 0 3 -45 56 -101 116 l-100 110 6 230 c2 127 7 489 10 805 3 316 8
666 11 778 l6 202 -108 0 -109 0 -323 -267z"/>
</g>
</svg>
